# xmcd CD database file
#
# Track frame offsets:
#	150
#	14338
#	32285
#	45288
#	54788
#	66523
#	83058
#	93413
#	105985
#	112573
#	123038
#	136753
#	149263
#	157323
#	171250
#	182915
#	192735
#	201430
#	218678
#
# Disc length: 3032 seconds
#
# Revision: 2
# Processed by: cddbd v1.5.2PL0 Copyright (c) Steve Scherf et al.
# Submitted via: CDex 1.70beta2
#
DISCID=fb0bd613
DTITLE=Odetta - The Tin Angel
DYEAR=1993
DGENRE=Blues
TTITLE0=John Henry
TTITLE1=Old Cotton Fields At Home
TTITLE2=The Frozen Logger
TTITLE3=Run, Come See Jerusalem
TTITLE4=Old Blue
TTITLE5=Water Boy
TTITLE6=Santy Ana
TTITLE7=I Was Born About 10,000 Years Ago/The Biggest Thing
TTITLE8=The Car-Car Song
TTITLE9=No More Cane On The Brazos
TTITLE10=Pay Day At Coal Creek
TTITLE11=I've Been 'Buked And I've Been Scorned
TTITLE12=Rock Island Line
TTITLE13=Another Man Don' Gone
TTITLE14=Children Go Where I Send Thee
TTITLE15=I Know Where I'm Going
TTITLE16=He's Got The Whole World In His Hands
TTITLE17=Timber
TTITLE18=Wade In The Water
EXTD=YEAR: 1993
EXTT0=
EXTT1=
EXTT2=
EXTT3=
EXTT4=
EXTT5=
EXTT6=
EXTT7=
EXTT8=
EXTT9=
EXTT10=
EXTT11=
EXTT12=
EXTT13=
EXTT14=
EXTT15=
EXTT16=
EXTT17=
EXTT18=
PLAYORDER=
